<?xml version="1.0" encoding="UTF-8"?>
<svg xmlns="http://www.w3.org/2000/svg" xmlns:xlink="http://www.w3.org/1999/xlink" viewBox="0 0 26 26" width="26px" height="26px">
<g id="surface127258082">
<path style=" stroke:none;fill-rule:nonzero;fill:rgb(80.000001%,80.000001%,80.000001%);fill-opacity:1;" d="M 0 13 C 0 5.820312 5.820312 0 13 0 C 20.179688 0 26 5.820312 26 13 C 26 20.179688 20.179688 26 13 26 C 5.820312 26 0 20.179688 0 13 Z M 13 25.480469 C 19.890625 25.480469 25.480469 19.890625 25.480469 13 C 25.480469 6.109375 19.890625 0.519531 13 0.519531 C 6.109375 0.519531 0.519531 6.109375 0.519531 13 C 0.519531 19.890625 6.109375 25.480469 13 25.480469 Z M 13 25.480469 "/>
<path style=" stroke:none;fill-rule:nonzero;fill:rgb(0%,0%,0%);fill-opacity:1;" d="M 19.257812 2.988281 L 6.742188 2.988281 C 4.671875 2.988281 2.988281 4.671875 2.988281 6.742188 L 2.988281 19.257812 C 2.988281 21.328125 4.671875 23.011719 6.742188 23.011719 L 19.257812 23.011719 C 21.328125 23.011719 23.011719 21.328125 23.011719 19.257812 L 23.011719 6.742188 C 23.011719 4.671875 21.328125 2.988281 19.257812 2.988281 Z M 9.179688 19.984375 L 6.070312 19.984375 L 6.050781 10.671875 L 9.160156 10.671875 Z M 7.546875 9.453125 L 7.527344 9.453125 C 6.511719 9.453125 5.855469 8.753906 5.855469 7.878906 C 5.855469 6.988281 6.53125 6.3125 7.566406 6.3125 C 8.601562 6.3125 9.238281 6.988281 9.257812 7.878906 C 9.257812 8.753906 8.597656 9.453125 7.546875 9.453125 Z M 19.964844 19.984375 L 16.824219 19.984375 L 16.824219 14.925781 C 16.824219 13.699219 16.5 12.867188 15.40625 12.867188 C 14.570312 12.867188 14.117188 13.429688 13.902344 13.972656 C 13.820312 14.171875 13.800781 14.4375 13.800781 14.710938 L 13.800781 19.984375 L 10.648438 19.984375 L 10.628906 10.671875 L 13.78125 10.671875 L 13.800781 11.988281 C 14.203125 11.363281 14.875 10.484375 16.480469 10.484375 C 18.472656 10.484375 19.960938 11.78125 19.960938 14.574219 L 19.960938 19.984375 Z M 19.964844 19.984375 "/>
</g>
</svg>
