<?xml version="1.0" encoding="UTF-8"?>
<svg xmlns="http://www.w3.org/2000/svg" xmlns:xlink="http://www.w3.org/1999/xlink" viewBox="0 0 240 240" width="240px" height="240px">
<defs>
<radialGradient id="radial0" gradientUnits="userSpaceOnUse" cx="62.65818" cy="177.122574" fx="62.65818" fy="177.122574" r="226.852203" gradientTransform="matrix(1.395349,0,0,1.395349,0,0)">
<stop offset="0" style="stop-color:rgb(100%,86.666667%,33.333334%);stop-opacity:1;"/>
<stop offset="0.328" style="stop-color:rgb(100%,32.941177%,24.705882%);stop-opacity:1;"/>
<stop offset="0.348" style="stop-color:rgb(98.823529%,32.156864%,27.058825%);stop-opacity:1;"/>
<stop offset="0.504" style="stop-color:rgb(90.196079%,27.843139%,44.313726%);stop-opacity:1;"/>
<stop offset="0.643" style="stop-color:rgb(83.529413%,24.313726%,56.862748%);stop-opacity:1;"/>
<stop offset="0.761" style="stop-color:rgb(80.000001%,22.352941%,64.313728%);stop-opacity:1;"/>
<stop offset="0.841" style="stop-color:rgb(78.431374%,21.568628%,67.058825%);stop-opacity:1;"/>
</radialGradient>
<radialGradient id="radial1" gradientUnits="userSpaceOnUse" cx="24.289499" cy="-7.26689" fx="24.289499" fy="-7.26689" r="150.630173" gradientTransform="matrix(1.395349,0,0,1.395349,0,0)">
<stop offset="0" style="stop-color:rgb(25.490198%,40.784314%,78.823531%);stop-opacity:1;"/>
<stop offset="0.999" style="stop-color:rgb(25.490198%,40.784314%,78.823531%);stop-opacity:0;"/>
</radialGradient>
</defs>
<g id="surface130013619">
<path style=" stroke:none;fill-rule:nonzero;fill:rgb(80.000001%,80.000001%,80.000001%);fill-opacity:1;" d="M 0 120 C 0 53.726562 53.726562 0 120 0 C 186.273438 0 240 53.726562 240 120 C 240 186.273438 186.273438 240 120 240 C 53.726562 240 0 186.273438 0 120 Z M 120 192 C 159.765625 192 192 159.765625 192 120 C 192 80.234375 159.765625 48 120 48 C 80.234375 48 48 80.234375 48 120 C 48 159.765625 80.234375 192 120 192 Z M 120 192 "/>
<path style=" stroke:none;fill-rule:nonzero;fill:url(#radial0);" d="M 190.621094 246.832031 L 49.621094 246.964844 C 18.601562 246.992188 -6.800781 221.640625 -6.835938 190.621094 L -6.96875 49.621094 C -6.996094 18.601562 18.355469 -6.800781 49.375 -6.835938 L 190.375 -6.96875 C 221.394531 -6.996094 246.796875 18.355469 246.832031 49.375 L 246.964844 190.375 C 247 221.402344 221.640625 246.800781 190.621094 246.832031 Z M 190.621094 246.832031 "/>
<path style=" stroke:none;fill-rule:nonzero;fill:url(#radial1);" d="M 190.621094 246.832031 L 49.621094 246.964844 C 18.601562 246.992188 -6.800781 221.640625 -6.835938 190.621094 L -6.96875 49.621094 C -6.996094 18.601562 18.355469 -6.800781 49.375 -6.835938 L 190.375 -6.96875 C 221.394531 -6.996094 246.796875 18.355469 246.832031 49.375 L 246.964844 190.375 C 247 221.402344 221.640625 246.800781 190.621094 246.832031 Z M 190.621094 246.832031 "/>
<path style=" stroke:none;fill-rule:nonzero;fill:rgb(100%,100%,100%);fill-opacity:1;" d="M 120 169.351562 C 92.796875 169.351562 70.652344 147.214844 70.652344 120 C 70.652344 92.789062 92.796875 70.652344 120 70.652344 C 147.207031 70.652344 169.351562 92.789062 169.351562 120 C 169.351562 147.214844 147.207031 169.351562 120 169.351562 Z M 120 84.75 C 100.5625 84.75 84.75 100.5625 84.75 120 C 84.75 139.4375 100.5625 155.25 120 155.25 C 139.4375 155.25 155.25 139.4375 155.25 120 C 155.25 100.5625 139.4375 84.75 120 84.75 Z M 120 84.75 "/>
<path style=" stroke:none;fill-rule:nonzero;fill:rgb(100%,100%,100%);fill-opacity:1;" d="M 183.449219 67.125 C 183.449219 72.964844 178.714844 77.699219 172.875 77.699219 C 167.035156 77.699219 162.300781 72.964844 162.300781 67.125 C 162.300781 61.285156 167.035156 56.550781 172.875 56.550781 C 178.714844 56.550781 183.449219 61.285156 183.449219 67.125 Z M 183.449219 67.125 "/>
<path style=" stroke:none;fill-rule:nonzero;fill:rgb(100%,100%,100%);fill-opacity:1;" d="M 162.300781 211.652344 L 77.699219 211.652344 C 50.496094 211.652344 28.351562 189.515625 28.351562 162.300781 L 28.351562 77.699219 C 28.351562 50.488281 50.496094 28.351562 77.699219 28.351562 L 162.300781 28.351562 C 189.507812 28.351562 211.652344 50.488281 211.652344 77.699219 L 211.652344 162.300781 C 211.652344 189.515625 189.507812 211.652344 162.300781 211.652344 Z M 77.699219 42.449219 C 58.265625 42.449219 42.449219 58.265625 42.449219 77.699219 L 42.449219 162.300781 C 42.449219 181.738281 58.265625 197.550781 77.699219 197.550781 L 162.300781 197.550781 C 181.738281 197.550781 197.550781 181.738281 197.550781 162.300781 L 197.550781 77.699219 C 197.550781 58.265625 181.738281 42.449219 162.300781 42.449219 Z M 77.699219 42.449219 "/>
</g>
</svg>
